<svg width="68" height="127" viewBox="0 0 68 127" fill="none" xmlns="http://www.w3.org/2000/svg">
<mask id="mask0_73_324" style="mask-type:alpha" maskUnits="userSpaceOnUse" x="0" y="0" width="68" height="127">
<rect width="68" height="127" fill="#C4C4C4"/>
</mask>
<g mask="url(#mask0_73_324)">
<path d="M71.8028 106.077L115.808 121.042H52.6701L44.5754 120.159L40.6508 117.706L54.0437 106.077H71.8028Z" fill="#172B4D"/>
<path d="M66.0137 78.601V76.2459C66.0137 76.2459 60.8626 66.0403 60.1267 65.9422C59.3909 65.8441 -0.460288 40.9189 -0.460288 40.9189L22.3518 85.3229L31.3786 94.9397L66.0137 78.601Z" fill="white" stroke="#36B37E" stroke-width="0.598795" stroke-miterlimit="10"/>
<mask id="mask1_73_324" style="mask-type:alpha" maskUnits="userSpaceOnUse" x="-1" y="40" width="68" height="56">
<path d="M66.1968 78.8676V76.5125C66.1968 76.5125 61.0457 66.3069 60.3098 66.2088C59.5739 66.1107 -0.277244 41.1855 -0.277244 41.1855L22.5349 85.5895L31.5616 95.2063L66.1968 78.8676Z" fill="white" stroke="#36B37E" stroke-width="0.598795" stroke-miterlimit="10"/>
</mask>
<g mask="url(#mask1_73_324)">
<path d="M41.043 67.0712L33.5371 67.3165L30.103 61.2324L22.8914 61.5759L26.2764 67.5128L19.1139 67.7581L22.4499 73.7931L29.6615 73.6459L37.1183 73.4496L40.7486 79.73L48.4508 79.6809L52.2773 86.1575H60.3719L56.3982 79.5828L52.5226 73.1062L44.7224 73.3025L41.043 67.0712Z" fill="#C5E9DA"/>
<path d="M37.4616 60.9371L33.9294 54.9512L26.6688 55.3437L30.1028 61.2315L37.4616 60.9371Z" fill="#36B37E"/>
<path d="M48.7453 66.7769L45.0168 60.5947L37.4619 60.9382L41.0431 67.0713L48.7453 66.7769Z" fill="#36B37E"/>
<path d="M52.7678 60.2503L48.9903 54.1172L41.3862 54.5097L45.0165 60.5938L52.7678 60.2503Z" fill="#36B37E"/>
<path d="M56.6434 66.531L48.7451 66.7764L52.5225 73.1058L60.5681 72.9586L68.8099 72.7623L64.7381 66.2857L60.7643 59.9072L52.7678 60.2507L56.6434 66.531Z" fill="#36B37E"/>
<path d="M15.876 61.8703L22.8913 61.5759L19.6044 55.6881L26.6688 55.3446L23.3329 49.5059L16.3666 49.9474L9.54748 50.389L12.6872 56.0806L5.91716 56.424L-0.656655 56.7675L2.3359 62.4591L9.00783 62.1647L12.1476 68.0034L19.1138 67.7581L15.876 61.8703Z" fill="#172B4D"/>
<path d="M5.37747 68.1992L8.46814 74.087L15.3854 73.9398L12.1475 68.0029L5.37747 68.1992Z" fill="#36B37E"/>
<path d="M-0.0679492 45.2856L2.87555 50.8299L9.54749 50.3883L6.45681 44.7949L-0.0679492 45.2856Z" fill="#36B37E"/>
<path d="M33.9295 54.9516L41.3863 54.51L37.8051 48.5731L34.3219 42.7344L27.1104 43.2741L20.046 43.8138L23.3329 49.5054L30.4954 49.0638L33.9295 54.9516Z" fill="#36B37E"/>
<path d="M53.0132 47.5918L45.3111 48.0824L48.9904 54.1175L56.8398 53.7249L53.0132 47.5918Z" fill="#36B37E"/>
<path d="M68.9081 59.5635L64.8853 53.2832L56.8397 53.7248L60.7644 59.907L68.9081 59.5635Z" fill="#36B37E"/>
<path d="M15.3855 73.9392L18.6724 80.0233L25.8349 79.9251L22.4499 73.792L15.3855 73.9392Z" fill="#36B37E"/>
</g>
<path d="M52.67 77.0303L25.1974 82.9181L24.5106 84.7335L30.6429 93.1236L52.67 77.0303Z" fill="#172B4D"/>
<path d="M76.1198 84.5377L70.5762 79.8274L61.991 73.3018L40.2582 82.0354L39.277 87.2853L44.5753 94.7923L76.1198 84.5377Z" fill="white" stroke="#36B37E" stroke-width="0.598795" stroke-miterlimit="10"/>
<path d="M64.9837 88.1189L81.0258 82.918L71.8028 106.077L58.557 106.911L64.9837 88.1189Z" fill="white" stroke="#36B37E" stroke-width="0.598795" stroke-miterlimit="10"/>
<path d="M47.7641 93.6635L44.5754 94.792L43.1036 115.743L44.5754 120.159L58.557 106.911L64.9836 88.1191L47.7641 93.6635Z" fill="white" stroke="#36B37E" stroke-width="0.598795" stroke-miterlimit="10"/>
<path d="M90.6902 79.8271L118.408 94.792L47.7642 93.6635L90.6902 79.8271Z" fill="#C5E9DA" stroke="#36B37E" stroke-width="0.598795" stroke-miterlimit="10"/>
<path d="M44.5753 94.7922V91.3576L22.3519 60.79L19.4084 65.4512L40.6507 117.706L43.1036 115.743L44.5753 94.7922Z" fill="white" stroke="#36B37E" stroke-width="0.598795" stroke-miterlimit="10"/>
<path d="M22.3519 60.7898L19.4084 65.4509L9.49859 74.6752L17.3479 58.8271L22.3519 60.7898Z" fill="white" stroke="#36B37E" stroke-width="0.598795" stroke-miterlimit="10"/>
<path d="M75.335 97.1477L47.7642 93.6641L76.5614 94.1547L75.335 97.1477Z" fill="#172B4D"/>
<path d="M50.7567 92.731L41.1412 84.7334L40.7488 86.1072L44.5753 91.3572V94.7918L50.7567 92.731Z" fill="#172B4D"/>
<path d="M38.5904 112.701L36.3337 115.498L33.3902 112.701L18.0349 66.7759L19.4086 65.4512L38.5904 112.701Z" fill="#C5E9DA" stroke="#36B37E" stroke-width="0.598795" stroke-miterlimit="10"/>
</g>
</svg>
